<?xml version="1.0" encoding="utf-8"?>
<!-- Generator: Adobe Illustrator 24.0.3, SVG Export Plug-In . SVG Version: 6.00 Build 0)  -->
<svg version="1.1" id="レイヤー_1" xmlns="http://www.w3.org/2000/svg" xmlns:xlink="http://www.w3.org/1999/xlink" x="0px"
	 y="0px" viewBox="0 0 100 45" style="enable-background:new 0 0 100 45;" xml:space="preserve">
<style type="text/css">
	.st0{fill:#008246;}
	.st1{fill:#1E238C;}
</style>
<g id="XMLID_37_">
	<g id="XMLID_68_">
		<rect id="XMLID_70_" x="40.4" y="1.5" class="st0" width="12" height="41.9"/>
		<rect id="XMLID_69_" x="1.6" y="1.5" class="st0" width="6" height="41.9"/>
	</g>
	<g id="XMLID_60_">
		<polygon id="XMLID_67_" class="st1" points="34.8,13.8 34.1,10.5 27.1,16.1 27.1,7.2 24,8.6 25.4,19.7 		"/>
		<polygon id="XMLID_66_" class="st1" points="24,8.6 21,7.2 21,16.1 14,10.5 13.2,13.8 22.6,19.7 		"/>
		<polygon id="XMLID_65_" class="st1" points="10.5,25.5 21,21.8 13.2,13.9 10.1,15.3 17.2,20.9 8.4,22.9 		"/>
		<polygon id="XMLID_64_" class="st1" points="10.5,25.6 9.8,28.9 18.5,26.9 14.6,35 18,35 21.6,24.5 		"/>
		<polygon id="XMLID_63_" class="st1" points="18,35 20.1,37.6 24,29.5 27.9,37.6 30,35 24.1,25.6 		"/>
		<polygon id="XMLID_62_" class="st1" points="37.5,25.6 26.5,24.4 30.1,34.9 33.4,35 29.5,26.9 38.3,28.9 		"/>
		<polygon id="XMLID_61_" class="st1" points="37.5,25.5 39.6,22.9 30.9,20.9 37.9,15.3 34.9,13.9 27.1,21.8 		"/>
	</g>
	<g id="XMLID_38_">
		<g id="XMLID_57_">
			<path id="XMLID_59_" d="M59.4,5.3h-4v1.3l4,0v3.5c-0.9,0.6-3.1,1.7-4,1.9v1.3c1.1-0.2,3.1-1.1,4-1.7v3.8h1.2V1.9h-1.2V5.3z"/>
			<path id="XMLID_58_" d="M67.5,10.5c0,0.3-0.1,2-0.1,2.4c0,0.6-0.1,0.9-0.7,1c-0.4,0-1.8,0.1-2.1,0c-0.2,0-0.4-0.1-0.4-0.5V8
				c1.4-0.7,4-2.9,4.5-3.6l-0.9-0.9c-0.7,0.9-2.5,2.4-3.6,3.1V1.9h-1.2v12.3c0,0.5,0,0.9,1.1,1c0.3,0,2.5,0,3-0.1
				c0.6-0.1,1.4-0.3,1.5-1.7c0.1-1.4,0.1-2.5,0.1-2.5L67.5,10.5z"/>
		</g>
		<g id="XMLID_47_">
			<path id="XMLID_56_" d="M73.8,3.7c-0.5-0.5-1.8-1.4-2.2-1.6l-0.8,1c0.4,0.2,1.7,1.1,2.2,1.6L73.8,3.7z"/>
			<path id="XMLID_55_" d="M73.3,7.6C72.8,7.1,71.4,6.2,71,6l-0.8,1c0.4,0.2,1.8,1.1,2.3,1.6L73.3,7.6z"/>
			<path id="XMLID_54_" d="M70.1,14.6l1,0.8c0.8-1.1,1.8-3.3,2.1-4.4l-1-0.8C71.9,11.2,70.9,13.6,70.1,14.6z"/>
			<path id="XMLID_48_" d="M83.5,4.5V3.3l-6.8,0c0.2-0.4,0.5-0.8,0.5-1.1l-1.1-0.3C75.4,3.3,74,5,72.9,5.9l0.8,0.9
				c0.3-0.3,0.8-0.7,1.2-1.2c0,0.4-0.1,1.7-0.3,3.2h-1.4v1.1h1.2c-0.2,1.7-0.7,3.9-0.8,4.3h1.2c0-0.1,0.1-0.4,0.2-0.9h5.8
				c-0.2,0.8-0.4,0.8-0.8,0.8c-0.4,0-1.8,0-1.8,0l0.3,1.2c0,0,0.6,0,1.3,0c1.9,0,2.1-1.1,2.2-2c0,0,0,0,0,0h1.2v-1.1h-1.1
				c0-0.6,0.1-1.5,0.2-2.4h1.1V8.8h-1.1c0.1-1.3,0.1-2.5,0.1-3.2H75c0.3-0.3,0.6-0.7,0.9-1.1H83.5z M80.9,12.3h-2.3
				c0.1-0.5,0.2-1.4,0.3-2.4h2.1C81.1,10.8,81,11.7,80.9,12.3z M81.4,6.7c0,0-0.1,0.9-0.2,2.1h-2.1c0.1-0.9,0.2-1.7,0.2-2.1H81.4z
				 M76,6.7h2.1c0,0.4-0.1,1.2-0.1,2.1h-2.2C75.9,7.9,76,6.9,76,6.7z M75.6,9.9h2.3c-0.1,0.9-0.2,1.7-0.3,2.4h-2.4
				C75.4,11.7,75.4,10.8,75.6,9.9z"/>
		</g>
		<g id="XMLID_39_">
			<path id="XMLID_46_" d="M87.9,5.3l0.8-0.8c-0.4-0.6-1.6-1.6-2.1-2l-0.8,0.8C86.3,3.6,87.5,4.7,87.9,5.3z"/>
			<path id="XMLID_45_" d="M91.1,14.2c-2,0-2.7-1.4-2.7-2.1c0-0.8,0-4.1,0-4.1h-2.9V9h1.7v3.8c-0.3,0.3-1.4,1.2-1.9,1.5l0.7,1.1
				c0.4-0.2,1.4-1.1,1.8-1.6c0.7,0.8,1.3,1.4,3.3,1.4c0.7,0,5.8,0.2,7.2,0v-1.2C96.2,14.3,92,14.2,91.1,14.2z"/>
			<path id="XMLID_40_" d="M92.7,5.7h-3.1v7.7h0.5h0.6h6.7V5.7h-3.6l0.4-1h4.1V3.6h-2.5l0.7-1.3l-1.1-0.3l-0.9,1.6l-1.9,0
				c-0.2-0.3-0.7-1.4-1-1.6l-1,0.4l0.7,1.2H89l0,1.1h4L92.7,5.7z M96.3,12.2h-5.6V11h5.6V12.2z M96.3,10h-5.6V8.8h5.6V10z M96.3,7.8
				h-5.6V6.8h5.6V7.8z"/>
		</g>
	</g>
</g>
</svg>
